<?xml version="1.0" encoding="utf-8"?>
<!-- Generator: Adobe Illustrator 27.0.0, SVG Export Plug-In . SVG Version: 6.00 Build 0)  -->
<svg version="1.1" id="图层_1" xmlns="http://www.w3.org/2000/svg" xmlns:xlink="http://www.w3.org/1999/xlink" x="0px" y="0px"
	 viewBox="0 0 100 100" style="enable-background:new 0 0 100 100;" xml:space="preserve">
<style type="text/css">
	.st0{display:none;fill:#006837;}
	.st1{fill:#FFFFFF;}
</style>
<rect class="st0" width="100" height="100"/>
<path class="st1" d="M69.12,44.13c0.16,0,1.62-0.32,1.7-0.16s0.73,4.77,0.57,4.77c-0.16,0-1.37,0.32-1.37,0.32
	C69.93,48.42,69.12,44.54,69.12,44.13 M71.47,43.73l0.65,5.01c0.32,0,1.62-0.08,1.78-0.16c-0.16-1.86-0.49-4.85-0.49-4.85
	C72.68,43.57,72.03,43.57,71.47,43.73 M70.17,50.6c0,0,2.83-0.73,3.88-0.4c0.49,1.86,1.46,12.45,1.54,12.94
	c-0.65,0.08-2.75,0.24-2.91,0.32C72.52,62.65,70.17,51.17,70.17,50.6 M80.68,44.29c0.16,0.08,1.7-0.16,1.7-0.08
	c0,0.4,0.16,4.85,0,4.85c-0.16,0-1.37,0.16-1.37,0.16C81.01,48.58,80.68,44.7,80.68,44.29 M83.03,44.13l0.16,4.93
	c0.32,0,1.62,0.08,1.78,0.08c0-1.86,0-4.85,0-4.85C84.24,44.21,83.67,44.13,83.03,44.13 M81.01,50.76c0,0,2.91-0.4,3.88,0.08
	c0.24,2.18,0.16,12.53,0.24,12.94c-0.65,0-2.75,0-2.91,0.08C82.14,63.05,81.01,51.25,81.01,50.76 M74.29,38.15
	c1.7,8.57,2.91,23.12,2.99,24.01c0,0,1.29,0,2.83,0.16c-0.89-9.22-1.94-23.85-1.94-24.34C77.77,37.5,74.29,38.15,74.29,38.15
	 M70.58,58.28c-0.32-2.43-8.89-5.09-13.66-4.2c0,0-0.57-5.26-0.81-10.35c-0.16-4.37,0-8.65,0-9.38c-0.32-0.24-3.8,1.46-5.66,2.1
	c0,0,2.26,9.46,3.88,29.19c0,0,2.59,0.24,7.03-0.57C65.81,64.1,71.06,61.43,70.58,58.28 M60.15,62.57l-0.73-5.42
	c0.16-0.08,4.77,1.62,5.26,1.94C64.59,59.49,60.15,62.57,60.15,62.57 M33.47,44.13c0.16,0,1.62-0.32,1.7-0.16
	c0.08,0.16,0.73,4.77,0.57,4.77c-0.16,0-1.37,0.32-1.37,0.32C34.28,48.42,33.47,44.54,33.47,44.13 M35.81,43.73l0.65,5.01
	c0.32,0,1.62-0.08,1.78-0.16c-0.16-1.86-0.49-4.85-0.49-4.85C37.02,43.57,36.38,43.57,35.81,43.73 M34.52,50.6
	c0,0,2.83-0.73,3.88-0.4c0.49,1.86,1.46,12.45,1.54,12.94c-0.65,0.08-2.75,0.24-2.91,0.32C36.86,62.65,34.52,51.17,34.52,50.6
	 M45.03,44.29c0.16,0.08,1.7-0.16,1.7-0.08c0,0.4,0.16,4.85,0,4.85s-1.37,0.16-1.37,0.16C45.35,48.58,45.03,44.7,45.03,44.29
	 M47.37,44.13l0.16,4.93c0.32,0,1.62,0.08,1.78,0.08c0-1.86,0-4.85,0-4.85C48.59,44.21,48.02,44.13,47.37,44.13 M45.35,50.76
	c0,0,2.91-0.4,3.88,0.08c0.24,2.18,0.16,12.53,0.24,12.94c-0.65,0-2.75,0-2.91,0.08C46.56,63.05,45.35,51.25,45.35,50.76
	 M38.64,38.15c1.7,8.57,2.91,23.12,2.99,24.01c0,0,1.29,0,2.83,0.16c-0.89-9.22-1.94-23.85-1.94-24.34
	C42.12,37.5,38.64,38.15,38.64,38.15 M35,58.28c-0.32-2.43-8.89-5.09-13.66-4.2c0,0-0.57-5.26-0.81-10.35c-0.16-4.37,0-8.65,0-9.38
	c-0.32-0.24-3.8,1.46-5.66,2.1c0,0,2.26,9.46,3.88,29.19c0,0,2.59,0.24,7.03-0.57S35.41,61.43,35,58.28 M24.49,62.57l-0.73-5.42
	c0.16-0.08,4.77,1.62,5.26,1.94C28.94,59.49,24.49,62.57,24.49,62.57"/>
</svg>
