<?xml version="1.0" encoding="utf-8"?>
<!-- Generator: Adobe Illustrator 27.0.0, SVG Export Plug-In . SVG Version: 6.00 Build 0)  -->
<svg version="1.1" id="图层_1" xmlns="http://www.w3.org/2000/svg" xmlns:xlink="http://www.w3.org/1999/xlink" x="0px" y="0px"
	 viewBox="0 0 100 100" style="enable-background:new 0 0 100 100;" xml:space="preserve">
<style type="text/css">
	.st0{display:none;fill:#006837;}
	.st1{fill:#FFFFFF;}
</style>
<rect class="st0" width="100" height="100"/>
<path class="st1" d="M78.66,38.04c2.97-5.52-0.42-12.73-0.42-12.73c-7.64,0-13.15,5.09-13.15,5.09c-2.97-1.7-12.73-1.7-12.73-1.7
	s-9.76,0-12.73,1.7c0,0-5.52-5.09-13.15-5.09c0,0-3.39,7.21-0.42,12.73c0,0-6.79,6.36-4.24,19.94C24.19,70.74,35.37,74.1,42.59,74.1
	c0,0-2.97,2.55-2.55,6.79c0,0-4.24,2.55-8.49,0.85s-6.36-5.94-6.36-5.94s-4.24-5.52-8.49-3.39c0,0-1.27,1.27,3.39,3.39
	c0,0,3.39,5.09,4.67,8.06c1.27,2.97,8.06,5.52,14.85,3.82v9.76c0,0,0,0.85-1.7,1.27c-1.7,0.42-1.7,1.27-0.85,1.27h30.54
	c0.85,0,0.85-0.85-0.85-1.27c-1.7-0.42-1.7-1.27-1.7-1.27v-9.77c0,0,0.04-5.09,0-6.79c-0.09-4.26-2.97-6.79-2.97-6.79
	c7.21,0,18.4-3.36,20.79-16.12C85.44,44.4,78.66,38.04,78.66,38.04L78.66,38.04z"/>
</svg>
